<svg width="228" height="37" viewBox="0 0 228 37" fill="none" xmlns="http://www.w3.org/2000/svg">
<path d="M54.586 20.3095H52.3034V26.4847H48.0864V8.99223H54.9705C57.0449 8.99223 58.6668 9.45277 59.8362 10.3738C61.0055 11.2949 61.5902 12.5964 61.5902 14.2784C61.5902 15.4958 61.3419 16.505 60.8453 17.3059C60.3568 18.1069 59.5879 18.7556 58.5386 19.2522L62.1909 26.3045V26.4847H57.6736L54.586 20.3095ZM52.3034 17.0537H54.9705C55.7714 17.0537 56.3721 16.8454 56.7726 16.4289C57.1811 16.0044 57.3853 15.4157 57.3853 14.6629C57.3853 13.91 57.1811 13.3213 56.7726 12.8968C56.3641 12.4643 55.7634 12.248 54.9705 12.248H52.3034V17.0537Z" fill="white"/>
<path d="M69.4522 26.4847H65.3915V13.4855H69.4522V26.4847ZM65.1512 10.1336C65.1512 9.55689 65.3594 9.08434 65.7759 8.7159C66.1924 8.34747 66.733 8.16326 67.3978 8.16326C68.0626 8.16326 68.6032 8.34747 69.0197 8.7159C69.4362 9.08434 69.6444 9.55689 69.6444 10.1336C69.6444 10.7102 69.4362 11.1828 69.0197 11.5512C68.6032 11.9197 68.0626 12.1039 67.3978 12.1039C66.733 12.1039 66.1924 11.9197 65.7759 11.5512C65.3594 11.1828 65.1512 10.7102 65.1512 10.1336Z" fill="white"/>
<path d="M78.3714 21.667L80.4258 13.4855H84.6908L80.4499 26.4847H76.317L72.0761 13.4855H76.3531L78.3714 21.667Z" fill="white"/>
<path d="M93.2496 26.725C91.2553 26.725 89.6414 26.1323 88.408 24.9469C87.1745 23.7535 86.5578 22.2037 86.5578 20.2974V19.9611C86.5578 18.6315 86.8021 17.4581 87.2907 16.4409C87.7873 15.4237 88.5081 14.6388 89.4532 14.0862C90.3983 13.5255 91.5196 13.2452 92.8171 13.2452C94.6433 13.2452 96.0849 13.8139 97.1422 14.9512C98.1994 16.0805 98.728 17.6584 98.728 19.6847V21.2586H90.6786C90.8228 21.9874 91.1392 22.5601 91.6277 22.9766C92.1163 23.3931 92.7491 23.6013 93.526 23.6013C94.8075 23.6013 95.8086 23.1528 96.5295 22.2557L98.3796 24.4423C97.875 25.1391 97.1582 25.6958 96.2291 26.1122C95.308 26.5207 94.3149 26.725 93.2496 26.725ZM92.7931 16.3689C91.6077 16.3689 90.9029 17.1538 90.6786 18.7236H94.7634V18.4112C94.7794 17.7625 94.6152 17.2619 94.2708 16.9095C93.9264 16.5491 93.4339 16.3689 92.7931 16.3689Z" fill="white"/>
<path d="M109.461 17.1498L108.128 17.0537C106.854 17.0537 106.037 17.4541 105.677 18.2551V26.4847H101.628V13.4855H105.425L105.557 15.1554C106.238 13.8819 107.187 13.2452 108.404 13.2452C108.837 13.2452 109.213 13.2933 109.533 13.3894L109.461 17.1498Z" fill="white"/>
<path d="M118.998 19.8649C118.998 18.5674 119.25 17.4141 119.755 16.4049C120.26 15.3877 120.984 14.6068 121.93 14.0622C122.875 13.5175 123.984 13.2452 125.257 13.2452C127.204 13.2452 128.738 13.8499 129.859 15.0593C130.98 16.2607 131.541 17.8986 131.541 19.9731V20.1172C131.541 22.1436 130.976 23.7535 129.847 24.9469C128.726 26.1323 127.204 26.725 125.281 26.725C123.431 26.725 121.946 26.1723 120.824 25.067C119.703 23.9537 119.098 22.448 119.01 20.5497L118.998 19.8649ZM123.047 20.1172C123.047 21.3186 123.235 22.1997 123.612 22.7603C123.988 23.321 124.545 23.6013 125.281 23.6013C126.723 23.6013 127.46 22.492 127.492 20.2734V19.8649C127.492 17.5342 126.747 16.3689 125.257 16.3689C123.904 16.3689 123.171 17.374 123.059 19.3844L123.047 20.1172Z" fill="white"/>
<path d="M135.45 26.4847V16.2968H133.564V13.4855H135.45V12.4523C135.45 10.9705 135.887 9.8212 136.76 9.00424C137.633 8.18729 138.858 7.77881 140.436 7.77881C141.013 7.77881 141.645 7.86291 142.334 8.0311L142.346 11.0106C142.098 10.9385 141.766 10.9025 141.349 10.9025C140.124 10.9025 139.511 11.4311 139.511 12.4883V13.4855H142.046V16.2968H139.511V26.4847H135.45Z" fill="white"/>
<path d="M152.243 26.4847V8.99223H157.878C159.424 8.99223 160.813 9.34464 162.047 10.0495C163.28 10.7463 164.241 11.7354 164.93 13.0169C165.627 14.2904 165.979 15.7201 165.987 17.3059V18.1109C165.987 19.7128 165.647 21.1504 164.966 22.4239C164.294 23.6894 163.34 24.6826 162.107 25.4034C160.882 26.1163 159.512 26.4767 157.998 26.4847H152.243ZM156.46 12.248V23.2409H157.926C159.135 23.2409 160.065 22.8124 160.713 21.9554C161.362 21.0904 161.686 19.8089 161.686 18.1109V17.354C161.686 15.664 161.362 14.3905 160.713 13.5335C160.065 12.6765 159.119 12.248 157.878 12.248H156.46Z" fill="white"/>
<path d="M175.483 26.725C173.489 26.725 171.875 26.1323 170.642 24.9469C169.408 23.7535 168.792 22.2037 168.792 20.2974V19.9611C168.792 18.6315 169.036 17.4581 169.524 16.4409C170.021 15.4237 170.742 14.6388 171.687 14.0862C172.632 13.5255 173.753 13.2452 175.051 13.2452C176.877 13.2452 178.319 13.8139 179.376 14.9512C180.433 16.0805 180.962 17.6584 180.962 19.6847V21.2586H172.912C173.057 21.9874 173.373 22.5601 173.861 22.9766C174.35 23.3931 174.983 23.6013 175.76 23.6013C177.041 23.6013 178.042 23.1528 178.763 22.2557L180.613 24.4423C180.109 25.1391 179.392 25.6958 178.463 26.1122C177.542 26.5207 176.549 26.725 175.483 26.725ZM175.027 16.3689C173.841 16.3689 173.137 17.1538 172.912 18.7236H176.997V18.4112C177.013 17.7625 176.849 17.2619 176.505 16.9095C176.16 16.5491 175.668 16.3689 175.027 16.3689Z" fill="white"/>
<path d="M190.638 22.8324C190.638 22.488 190.458 22.2117 190.097 22.0034C189.737 21.7952 189.052 21.5789 188.043 21.3547C187.034 21.1304 186.201 20.8381 185.544 20.4777C184.887 20.1092 184.387 19.6647 184.042 19.1441C183.698 18.6235 183.526 18.0268 183.526 17.354C183.526 16.1606 184.018 15.1795 185.003 14.4106C185.988 13.6337 187.278 13.2452 188.872 13.2452C190.586 13.2452 191.963 13.6337 193.005 14.4106C194.046 15.1875 194.567 16.2087 194.567 17.4741H190.506C190.506 16.4329 189.957 15.9123 188.86 15.9123C188.435 15.9123 188.079 16.0325 187.791 16.2727C187.502 16.505 187.358 16.7974 187.358 17.1498C187.358 17.5102 187.534 17.8025 187.887 18.0268C188.239 18.2511 188.8 18.4353 189.569 18.5794C190.346 18.7236 191.026 18.8958 191.611 19.096C193.565 19.7688 194.542 20.9742 194.542 22.7123C194.542 23.8977 194.014 24.8628 192.957 25.6077C191.907 26.3525 190.546 26.725 188.872 26.725C187.759 26.725 186.765 26.5247 185.892 26.1243C185.019 25.7238 184.339 25.1792 183.85 24.4904C183.361 23.8015 183.117 23.0767 183.117 22.3158H186.902C186.918 22.9165 187.118 23.357 187.502 23.6374C187.887 23.9097 188.379 24.0458 188.98 24.0458C189.533 24.0458 189.945 23.9337 190.217 23.7094C190.498 23.4852 190.638 23.1928 190.638 22.8324Z" fill="white"/>
<path d="M201.948 26.4847H197.887V13.4855H201.948V26.4847ZM197.647 10.1336C197.647 9.55689 197.855 9.08434 198.272 8.7159C198.688 8.34747 199.229 8.16326 199.894 8.16326C200.558 8.16326 201.099 8.34747 201.515 8.7159C201.932 9.08434 202.14 9.55689 202.14 10.1336C202.14 10.7102 201.932 11.1828 201.515 11.5512C201.099 11.9197 200.558 12.1039 199.894 12.1039C199.229 12.1039 198.688 11.9197 198.272 11.5512C197.855 11.1828 197.647 10.7102 197.647 10.1336Z" fill="white"/>
<path d="M213.546 17.1498L212.213 17.0537C210.939 17.0537 210.122 17.4541 209.762 18.2551V26.4847H205.713V13.4855H209.51L209.642 15.1554C210.323 13.8819 211.272 13.2452 212.489 13.2452C212.922 13.2452 213.298 13.2933 213.618 13.3894L213.546 17.1498Z" fill="white"/>
<path d="M222.285 26.725C220.291 26.725 218.677 26.1323 217.444 24.9469C216.21 23.7535 215.593 22.2037 215.593 20.2974V19.9611C215.593 18.6315 215.838 17.4581 216.326 16.4409C216.823 15.4237 217.544 14.6388 218.489 14.0862C219.434 13.5255 220.555 13.2452 221.853 13.2452C223.679 13.2452 225.121 13.8139 226.178 14.9512C227.235 16.0805 227.764 17.6584 227.764 19.6847V21.2586H219.714C219.858 21.9874 220.175 22.5601 220.663 22.9766C221.152 23.3931 221.785 23.6013 222.562 23.6013C223.843 23.6013 224.844 23.1528 225.565 22.2557L227.415 24.4423C226.911 25.1391 226.194 25.6958 225.265 26.1122C224.344 26.5207 223.351 26.725 222.285 26.725ZM221.829 16.3689C220.643 16.3689 219.939 17.1538 219.714 18.7236H223.799V18.4112C223.815 17.7625 223.651 17.2619 223.307 16.9095C222.962 16.5491 222.47 16.3689 221.829 16.3689Z" fill="white"/>
<path d="M11.3655 17.9327C12.9671 17.3059 13.7709 16.0627 13.7709 14.2123C13.7709 12.2988 12.9851 11.0227 11.415 10.3944C10.4718 10.0195 8.85378 9.83057 6.56395 9.83057H0.502716V18.4995H6.56395C8.7893 18.498 10.3908 18.3091 11.3655 17.9327Z" fill="#4A90E2"/>
<path d="M11.9894 36.076C12.0448 35.9785 12.0763 35.8675 12.0763 35.7445C12.0763 35.4296 11.6984 34.7219 10.9457 33.6227L4.25312 23.964H0.502716V36.0969H11.3446C11.5605 36.0969 11.7734 36.082 11.9894 36.076Z" fill="#4A90E2"/>
<path d="M28.6873 13.3291C28.2704 11.7905 27.6661 10.3599 26.8803 9.03582C26.0945 7.69821 25.1588 6.48507 24.0686 5.39788C22.98 4.29421 21.7683 3.34647 20.4307 2.5592C19.0901 1.77343 17.6505 1.16912 16.112 0.75074C14.5884 0.315867 13.0019 0.0969238 11.3418 0.0969238H0.5V4.40367H7.59593C14.8193 4.40367 19.0766 6.29163 20.3677 10.0585C20.7756 11.2522 20.9795 12.6348 20.9795 14.2063C20.9795 19.5778 17.9789 22.7358 11.9761 23.676L18.3853 32.7694C18.7917 33.3407 19.1066 33.7816 19.378 34.158C19.7259 33.981 20.0918 33.8266 20.4277 33.6272C21.7668 32.8429 22.9785 31.9072 24.0656 30.8155C25.1573 29.7118 26.093 28.4971 26.8773 27.176C27.6631 25.8339 28.2674 24.4048 28.6843 22.8828C29.1192 21.3457 29.3396 19.7442 29.3396 18.0902C29.3411 16.4392 29.1222 14.8541 28.6873 13.3291Z" fill="#4A90E2"/>
</svg>
