<svg width="108" height="19" viewBox="0 0 108 19" fill="none" xmlns="http://www.w3.org/2000/svg">
    <path d="M0.544922 11.4863C0.603516 14.2012 2.84961 15.8809 6.41406 15.8809C10.1055 15.8809 12.3516 14.1035 12.3516 11.1641C12.3516 8.92773 11.1016 7.66797 8.31836 7.13086L6.50195 6.7793C5.01758 6.48633 4.39258 6.03711 4.39258 5.26562C4.39258 4.32812 5.22266 3.73242 6.48242 3.73242C7.74219 3.73242 8.68945 4.42578 8.76758 5.42188H12.0781C12.0195 2.81445 9.73438 1.02734 6.43359 1.02734C3.03516 1.02734 0.828125 2.83398 0.828125 5.58789C0.828125 7.80469 2.15625 9.21094 4.73438 9.69922L6.58984 10.0703C8.20117 10.3926 8.81641 10.8125 8.81641 11.5938C8.81641 12.5215 7.89844 13.166 6.56055 13.166C5.07617 13.166 4.05078 12.5117 3.96289 11.4863H0.544922ZM14.8516 15.5H18.2988V9.33789C18.2988 8.08789 19.1387 7.23828 20.3203 7.23828C21.4824 7.23828 22.2051 7.95117 22.2051 9.29883V15.5H25.6621V8.51758C25.6621 5.88086 24.207 4.42578 21.8047 4.42578C20.2422 4.42578 18.8945 5.1875 18.416 6.4375H18.2305V0.558594H14.8516V15.5ZM33.2695 13.1172C32 13.1172 31.2773 12.0039 31.2773 10.0605C31.2773 8.16602 32.0195 7.01367 33.2695 7.01367C34.5195 7.01367 35.2617 8.16602 35.2617 10.0605C35.2617 11.9941 34.5391 13.1172 33.2695 13.1172ZM33.2695 15.7539C36.7559 15.7539 38.8066 13.6445 38.8066 10.0605C38.8066 6.52539 36.707 4.37695 33.2695 4.37695C29.8516 4.37695 27.7324 6.54492 27.7324 10.0605C27.7324 13.6348 29.793 15.7539 33.2695 15.7539ZM47.752 4.46484C46.248 4.46484 45.0469 5.1875 44.5098 6.39844H44.3242V4.63086H40.9648V18.8105H44.4121V13.8301H44.5977C45.1055 14.9824 46.2578 15.666 47.8301 15.666C50.5352 15.666 52.127 13.6055 52.127 10.0605C52.127 6.50586 50.4961 4.46484 47.752 4.46484ZM46.4922 12.9512C45.1836 12.9512 44.3926 11.877 44.3926 10.0703C44.3926 8.27344 45.1934 7.17969 46.4922 7.17969C47.8008 7.17969 48.582 8.27344 48.582 10.0605C48.582 11.8672 47.8105 12.9512 46.4922 12.9512Z" fill="white"/>
    <path d="M55.1445 2.16992V4.77734H53.4648V7.3457H55.1445V12.5215C55.1445 14.6504 56.2676 15.5195 59.1289 15.5195C59.7832 15.5195 60.4082 15.4609 60.7793 15.3828V12.9219C60.5254 12.9512 60.3105 12.9707 59.9102 12.9707C59.0117 12.9707 58.5918 12.5703 58.5918 11.75V7.3457H60.8086V4.77734H58.5918V2.16992H55.1445ZM68.0156 13.1172C66.7461 13.1172 66.0234 12.0039 66.0234 10.0605C66.0234 8.16602 66.7656 7.01367 68.0156 7.01367C69.2656 7.01367 70.0078 8.16602 70.0078 10.0605C70.0078 11.9941 69.2852 13.1172 68.0156 13.1172ZM68.0156 15.7539C71.502 15.7539 73.5527 13.6445 73.5527 10.0605C73.5527 6.52539 71.4531 4.37695 68.0156 4.37695C64.5977 4.37695 62.4785 6.54492 62.4785 10.0605C62.4785 13.6348 64.5391 15.7539 68.0156 15.7539ZM86.375 4.63086H82.918V10.8418C82.918 12.1113 82.1074 12.9121 80.9551 12.9121C79.8125 12.9121 79.0605 12.2285 79.0605 10.8809V4.63086H75.6133V11.6621C75.6133 14.2402 77.2344 15.7539 79.5879 15.7539C81.1309 15.7539 82.3223 15.0215 82.8203 13.7422H83.0059V15.5H86.375V4.63086ZM89.0703 15.5H92.5176V9.74805C92.5176 8.23438 93.5234 7.375 95.0176 7.375C95.457 7.375 96.209 7.46289 96.4727 7.57031V4.63086C96.209 4.52344 95.6816 4.46484 95.252 4.46484C93.9336 4.46484 92.8789 5.32422 92.6152 6.41797H92.4297V4.63086H89.0703V15.5ZM97.791 7.90234C97.791 9.61133 98.8555 10.6758 101.014 11.1348L103.035 11.5645C103.904 11.75 104.227 11.9941 104.227 12.4531C104.227 13.0391 103.611 13.4199 102.664 13.4199C101.648 13.4199 101.033 13.0586 100.857 12.3848H97.5273C97.7227 14.5723 99.5 15.7539 102.615 15.7539C105.652 15.7539 107.635 14.3086 107.635 12.0527C107.635 10.4023 106.707 9.51367 104.568 9.06445L102.322 8.60547C101.463 8.41992 101.072 8.14648 101.072 7.6875C101.072 7.10156 101.697 6.71094 102.596 6.71094C103.533 6.71094 104.109 7.0918 104.207 7.72656H107.352C107.225 5.53906 105.574 4.37695 102.566 4.37695C99.6367 4.37695 97.791 5.74414 97.791 7.90234Z" fill="#4A90E2"/>
</svg>
