<svg width="30" height="37" viewBox="0 0 30 37" fill="none" xmlns="http://www.w3.org/2000/svg">
<path d="M11.3655 17.9327C12.9671 17.3059 13.7709 16.0627 13.7709 14.2123C13.7709 12.2988 12.9851 11.0227 11.415 10.3944C10.4718 10.0195 8.85378 9.83057 6.56395 9.83057H0.502716V18.4995H6.56395C8.7893 18.498 10.3908 18.3091 11.3655 17.9327Z" fill="#4A90E2"/>
<path d="M11.9894 36.076C12.0448 35.9785 12.0763 35.8675 12.0763 35.7445C12.0763 35.4296 11.6984 34.7219 10.9457 33.6227L4.25312 23.964H0.502716V36.0969H11.3446C11.5605 36.0969 11.7734 36.082 11.9894 36.076Z" fill="#4A90E2"/>
<path d="M28.6873 13.3291C28.2704 11.7905 27.6661 10.3599 26.8803 9.03582C26.0945 7.69821 25.1588 6.48507 24.0686 5.39788C22.98 4.29421 21.7683 3.34647 20.4307 2.5592C19.0901 1.77343 17.6505 1.16912 16.112 0.75074C14.5884 0.315867 13.0019 0.0969238 11.3418 0.0969238H0.5V4.40367H7.59593C14.8193 4.40367 19.0766 6.29163 20.3677 10.0585C20.7756 11.2522 20.9795 12.6348 20.9795 14.2063C20.9795 19.5778 17.9789 22.7358 11.9761 23.676L18.3853 32.7694C18.7917 33.3407 19.1066 33.7816 19.378 34.158C19.7259 33.981 20.0918 33.8266 20.4277 33.6272C21.7668 32.8429 22.9785 31.9072 24.0656 30.8155C25.1573 29.7118 26.093 28.4971 26.8773 27.176C27.6631 25.8339 28.2674 24.4048 28.6843 22.8828C29.1192 21.3457 29.3396 19.7442 29.3396 18.0902C29.3411 16.4392 29.1222 14.8541 28.6873 13.3291Z" fill="#4A90E2"/>
</svg>
