<svg width="236" height="48" viewBox="0 0 236 48" fill="none" xmlns="http://www.w3.org/2000/svg">
<path d="M61.2712 31.4538H58.8862V13.8992H64.0679C66.1179 13.8992 67.6757 14.3431 68.741 15.2309C69.8145 16.1107 70.3512 17.3859 70.3512 19.0566C70.3512 20.2431 70.0647 21.2398 69.4917 22.047C68.9186 22.846 68.0873 23.4352 66.9977 23.8145L70.9929 31.4538H68.2447L64.5158 24.2383H61.2712V31.4538ZM64.0679 22.1317C66.6022 22.1317 67.8694 21.1067 67.8694 19.0566C67.8694 18.0316 67.5586 17.2689 66.9372 16.7685C66.3157 16.26 65.3593 16.0057 64.0679 16.0057H61.2712V22.1317H64.0679Z" fill="white"/>
<path d="M75.0413 13.996H77.3658V16.381H75.0413V13.996ZM75.0413 18.7055H77.3658V31.4538H75.0413V18.7055Z" fill="white"/>
<path d="M80.8574 18.7055H83.315L85.7485 25.4974C85.8776 25.8606 86.0148 26.2883 86.1601 26.7807C86.3134 27.2649 86.4305 27.6241 86.5112 27.8581C86.5112 27.8259 86.6444 28.2456 86.9107 29.1172L87.3102 27.8581C87.7219 26.5668 87.9761 25.7798 88.0729 25.4974L90.5064 18.7055H92.8672L88.3272 31.4538H85.3974L80.8574 18.7055Z" fill="white"/>
<path d="M97.7752 25.4974C97.8398 26.821 98.1949 27.8339 98.8406 28.5361C99.4863 29.2383 100.394 29.5894 101.565 29.5894C102.21 29.5894 102.832 29.5208 103.429 29.3836C104.034 29.2464 104.72 29.0123 105.487 28.6814L106.226 30.4127C105.346 30.8404 104.523 31.1552 103.756 31.357C102.989 31.5507 102.218 31.6475 101.444 31.6475C99.5226 31.6475 98.0335 31.0704 96.9762 29.9163C95.9189 28.7621 95.3902 27.1439 95.3902 25.0615C95.3902 22.9792 95.9108 21.3649 96.952 20.2189C97.9931 19.0647 99.4661 18.4876 101.371 18.4876C103.155 18.4876 104.482 19.0243 105.354 20.0978C106.234 21.1712 106.674 22.7976 106.674 24.9768V25.4974H97.7752ZM104.264 23.5482C104.2 22.5554 103.917 21.8089 103.417 21.3084C102.925 20.8 102.243 20.5457 101.371 20.5457C99.4338 20.5457 98.2756 21.5465 97.8963 23.5482H104.264Z" fill="white"/>
<path d="M113.047 20.4973C113.49 19.8355 114.011 19.3351 114.608 18.9961C115.206 18.6571 115.859 18.4876 116.57 18.4876C117.046 18.4876 117.599 18.5764 118.228 18.7539L117.804 21.0421C116.997 20.8807 116.453 20.7959 116.17 20.7879C115.46 20.7879 114.871 20.921 114.402 21.1874C113.942 21.4537 113.547 21.8855 113.216 22.4828V31.4538H110.892V18.7055H112.756L113.047 20.4973Z" fill="white"/>
<path d="M134.098 18.4634C136.01 18.4634 137.496 19.0445 138.553 20.2067C139.61 21.3609 140.139 22.9792 140.139 25.0615C140.139 27.1439 139.61 28.7621 138.553 29.9163C137.496 31.0704 136.01 31.6475 134.098 31.6475C132.177 31.6475 130.688 31.0704 129.63 29.9163C128.573 28.7621 128.044 27.1439 128.044 25.0615C128.044 22.9792 128.573 21.3609 129.63 20.2067C130.688 19.0445 132.177 18.4634 134.098 18.4634ZM134.098 20.5215C132.903 20.5215 131.991 20.9089 131.361 21.6838C130.74 22.4586 130.429 23.5845 130.429 25.0615C130.429 26.5305 130.74 27.6523 131.361 28.4272C131.991 29.202 132.903 29.5894 134.098 29.5894C135.284 29.5894 136.192 29.202 136.822 28.4272C137.451 27.6523 137.766 26.5305 137.766 25.0615C137.766 23.5926 137.451 22.4707 136.822 21.6959C136.192 20.913 135.284 20.5215 134.098 20.5215Z" fill="white"/>
<path d="M145.035 16.9985C145.035 15.6425 145.39 14.5933 146.1 13.8508C146.81 13.1082 147.811 12.7369 149.103 12.7369C149.595 12.7369 150.071 12.7854 150.531 12.8822C150.999 12.9791 151.564 13.1607 152.226 13.427L151.379 15.243C150.523 14.9605 149.821 14.8193 149.272 14.8193C148.659 14.8193 148.187 14.9968 147.856 15.352C147.533 15.7071 147.371 16.1994 147.371 16.829V18.7055H150.991V20.7152H147.371V30.6306C147.371 31.4861 147.307 32.269 147.178 32.9793C147.057 33.6976 146.855 34.4522 146.572 35.2432H145.035V20.7152H142.807V18.7055H145.035V16.9985Z" fill="white"/>
<path d="M167.757 13.8992C170.485 13.8992 172.571 14.6498 174.016 16.151C175.468 17.6442 176.195 19.8032 176.195 22.6281C176.195 25.453 175.46 27.6322 173.991 29.1657C172.531 30.6911 170.452 31.4538 167.757 31.4538H162.078V13.8992H167.757ZM167.757 29.3473C169.694 29.3473 171.171 28.7783 172.188 27.6402C173.205 26.4941 173.713 24.8234 173.713 22.6281C173.713 20.465 173.209 18.8225 172.2 17.7007C171.191 16.5707 169.71 16.0057 167.757 16.0057H164.464V29.3473H167.757Z" fill="white"/>
<path d="M182.071 25.4974C182.136 26.821 182.491 27.8339 183.137 28.5361C183.782 29.2383 184.69 29.5894 185.861 29.5894C186.506 29.5894 187.128 29.5208 187.725 29.3836C188.331 29.2464 189.017 29.0123 189.783 28.6814L190.522 30.4127C189.642 30.8404 188.819 31.1552 188.052 31.357C187.285 31.5507 186.515 31.6475 185.74 31.6475C183.819 31.6475 182.33 31.0704 181.272 29.9163C180.215 28.7621 179.686 27.1439 179.686 25.0615C179.686 22.9792 180.207 21.3649 181.248 20.2189C182.289 19.0647 183.762 18.4876 185.667 18.4876C187.451 18.4876 188.779 19.0243 189.65 20.0978C190.53 21.1712 190.97 22.7976 190.97 24.9768V25.4974H182.071ZM188.561 23.5482C188.496 22.5554 188.214 21.8089 187.713 21.3084C187.221 20.8 186.539 20.5457 185.667 20.5457C183.73 20.5457 182.572 21.5465 182.192 23.5482H188.561Z" fill="white"/>
<path d="M199.026 18.4876C200.067 18.4795 201.273 18.7499 202.645 19.2987L202.028 21.2358C200.817 20.7596 199.817 20.5215 199.026 20.5215C198.299 20.5215 197.726 20.6628 197.306 20.9452C196.887 21.2197 196.677 21.599 196.677 22.0833C196.677 22.5433 196.863 22.8944 197.234 23.1366C197.605 23.3787 198.162 23.6127 198.905 23.8387C199.784 24.1212 200.482 24.3835 200.999 24.6257C201.524 24.8597 201.98 25.2391 202.367 25.7637C202.754 26.2802 202.948 26.9703 202.948 27.8339C202.948 29.0042 202.524 29.9365 201.677 30.6306C200.838 31.3247 199.7 31.6717 198.263 31.6717C196.762 31.6717 195.313 31.3529 193.917 30.7153L194.643 28.7056C195.434 29.0365 196.096 29.2706 196.628 29.4078C197.169 29.545 197.706 29.6136 198.239 29.6136C198.997 29.6136 199.582 29.4683 199.994 29.1778C200.406 28.8791 200.612 28.4473 200.612 27.8824C200.612 27.5192 200.495 27.2205 200.26 26.9865C200.034 26.7443 199.752 26.5587 199.413 26.4296C199.074 26.2924 198.59 26.1229 197.96 25.9211C197.202 25.6709 196.576 25.4247 196.084 25.1826C195.599 24.9324 195.188 24.5611 194.849 24.0688C194.51 23.5684 194.34 22.9146 194.34 22.1075C194.34 21.0017 194.764 20.122 195.611 19.4682C196.467 18.8145 197.605 18.4876 199.026 18.4876Z" fill="white"/>
<path d="M207.154 13.996H209.478V16.381H207.154V13.996ZM207.154 18.7055H209.478V31.4538H207.154V18.7055Z" fill="white"/>
<path d="M216.941 20.4973C217.385 19.8355 217.905 19.3351 218.503 18.9961C219.1 18.6571 219.754 18.4876 220.464 18.4876C220.94 18.4876 221.493 18.5764 222.123 18.7539L221.699 21.0421C220.892 20.8807 220.347 20.7959 220.065 20.7879C219.354 20.7879 218.765 20.921 218.297 21.1874C217.837 21.4537 217.441 21.8855 217.11 22.4828V31.4538H214.786V18.7055H216.65L216.941 20.4973Z" fill="white"/>
<path d="M226.498 25.4974C226.563 26.821 226.918 27.8339 227.563 28.5361C228.209 29.2383 229.117 29.5894 230.287 29.5894C230.933 29.5894 231.555 29.5208 232.152 29.3836C232.757 29.2464 233.443 29.0123 234.21 28.6814L234.948 30.4127C234.069 30.8404 233.245 31.1552 232.479 31.357C231.712 31.5507 230.941 31.6475 230.166 31.6475C228.245 31.6475 226.756 31.0704 225.699 29.9163C224.642 28.7621 224.113 27.1439 224.113 25.0615C224.113 22.9792 224.634 21.3649 225.675 20.2189C226.716 19.0647 228.189 18.4876 230.094 18.4876C231.877 18.4876 233.205 19.0243 234.077 20.0978C234.957 21.1712 235.396 22.7976 235.396 24.9768V25.4974H226.498ZM232.987 23.5482C232.923 22.5554 232.64 21.8089 232.14 21.3084C231.647 20.8 230.965 20.5457 230.094 20.5457C228.157 20.5457 226.998 21.5465 226.619 23.5482H232.987Z" fill="white"/>
<path d="M23.0267 43.1659C25.0234 41.6889 26.5136 39.7838 27.4694 37.6748C25.759 37.4535 24.1377 36.5683 23.0307 35.0719C20.8717 32.1533 21.4886 28.0398 24.4063 25.8814L24.403 25.877L14.5548 33.1622L14.5653 33.1763C11.8935 35.3848 11.382 39.3179 13.4686 42.1386C15.5552 44.9593 19.4658 45.6212 22.3602 43.7136L22.3778 43.7374L23.4842 42.9189C23.2557 43.088 23.018 43.2298 22.7724 43.35C22.8549 43.2862 22.9403 43.2299 23.0267 43.1659Z" fill="#4A90E2"/>
<path d="M23.7331 23.9824C25.296 22.6884 26.1144 20.8053 26.1083 18.9C21.4864 15.1876 14.8799 14.7235 9.73005 18.0185L6.0791 20.7192L6.08237 20.7237C9.00013 18.5652 13.1119 19.1835 15.2696 22.1003C17.4274 25.0172 16.812 29.131 13.8969 31.2874L13.9001 31.2918L23.7475 24.0073L23.7331 23.9824Z" fill="#4A90E2"/>
<path d="M22.2854 8.77155C21.944 8.91351 21.6114 9.09132 21.3 9.32172L11.3291 16.6976C11.1015 16.866 10.8952 17.0541 10.7098 17.2554C10.7934 17.1895 10.8704 17.1257 10.9542 17.0637C17.2071 12.4382 26.024 13.7571 30.6495 20.0099C35.2744 26.2619 33.9561 35.0797 27.7032 39.7052C27.6194 39.7672 27.5341 39.8235 27.4496 39.8846C27.6952 39.7644 27.9347 39.6214 28.1623 39.453L38.1332 32.0771C38.2267 32.0079 38.3177 31.9297 38.4027 31.8545C38.5969 31.7258 38.7887 31.5921 38.9793 31.4511C45.2322 26.8256 46.5504 18.0078 41.9249 11.755C37.3159 5.52266 28.5325 4.19537 22.2854 8.77155Z" fill="#4A90E2"/>
</svg>
