<svg width="16" height="16" viewBox="0 0 16 16" fill="none" xmlns="http://www.w3.org/2000/svg">
<path d="M15.2977 13.1637L11.4576 9.28632C12.0058 8.38263 12.3382 7.32964 12.3382 6.19104C12.3382 2.891 9.6869 0.214478 6.41908 0.214478C3.15077 0.214478 0.5 2.891 0.5 6.19104C0.5 9.4906 3.15077 12.1676 6.41908 12.1676C7.54672 12.1676 8.58959 11.832 9.48459 11.2805L13.3247 15.1559C13.5944 15.4283 14.0414 15.4263 14.3112 15.1559L15.2977 14.1598C15.5674 13.8874 15.5674 13.4361 15.2977 13.1637ZM6.41908 10.1754C4.23988 10.1754 2.47303 8.3914 2.47303 6.19104C2.47303 3.99068 4.23988 2.20667 6.41908 2.20667C8.59827 2.20667 10.3651 3.99068 10.3651 6.19104C10.3651 8.3914 8.59827 10.1754 6.41908 10.1754Z" fill="#4A90E2"/>
</svg>
