<svg width="39" height="41" viewBox="0 0 39 41" fill="none" xmlns="http://www.w3.org/2000/svg">
<g clip-path="url(#clip0)">
<path d="M18.6875 40.9412C18.5681 40.9412 18.4486 40.9145 18.3381 40.8603L1.27563 32.527C0.992875 32.3887 0.8125 32.0962 0.8125 31.7745V5.94115C0.8125 5.65532 0.9555 5.38949 1.19112 5.23615C1.42594 5.08365 1.7225 5.06615 1.97438 5.18865L18.6875 13.3512L35.4006 5.18782C35.6525 5.06615 35.9474 5.08282 36.1831 5.23615C36.4195 5.38949 36.5625 5.65532 36.5625 5.94115V31.7745C36.5625 32.0962 36.3821 32.3887 36.0994 32.527L19.0369 40.8603C18.9264 40.9145 18.8069 40.9412 18.6875 40.9412ZM2.4375 31.2478L18.6875 39.1845L34.9375 31.2478V7.26115L19.0369 15.027C18.8167 15.1345 18.5591 15.1345 18.3389 15.027L2.4375 7.26115V31.2478Z" fill="#4A90E2"/>
<path d="M18.6872 11.0703L4.52288 4.15275C4.11744 3.95442 3.946 3.45692 4.13857 3.04192C4.33194 2.62608 4.81619 2.45192 5.22163 2.64692L18.6872 9.22442L32.1528 2.64692C32.559 2.45192 33.0424 2.62608 33.2358 3.04192C33.4284 3.45692 33.2569 3.95442 32.8515 4.15275L18.6872 11.0703Z" fill="#4A90E2"/>
<path d="M19.5 14.2744H17.875V40.1077H19.5V14.2744Z" fill="#4A90E2"/>
</g>
<defs>
<clipPath id="clip0">
<rect width="39" height="40" fill="white" transform="translate(0 0.900146)"/>
</clipPath>
</defs>
</svg>
