<svg width="18" height="19" viewBox="0 0 18 19" fill="none" xmlns="http://www.w3.org/2000/svg">
<g clip-path="url(#clip0)">
<path d="M4.99995 0.875488H1.79995C0.915951 0.875488 0.199951 1.57798 0.199951 2.4453V5.58492C0.199951 6.45224 0.915951 7.15473 1.79995 7.15473H4.99995C5.88395 7.15473 6.59995 6.45224 6.59995 5.58492V2.4453C6.59995 1.57798 5.88395 0.875488 4.99995 0.875488ZM4.99995 5.58492H1.79995V2.4453H4.99995V5.58492ZM4.19995 4.80002H2.59995V3.23021H4.19995V4.80002Z" fill="#FCFCFC"/>
<path d="M4.99995 11.8642H1.79995C0.915951 11.8642 0.199951 12.5667 0.199951 13.434V16.5736C0.199951 17.441 0.915951 18.1434 1.79995 18.1434H4.99995C5.88395 18.1434 6.59995 17.441 6.59995 16.5736V13.434C6.59995 12.5667 5.88395 11.8642 4.99995 11.8642ZM4.99995 16.5736H1.79995V13.434H4.99995V16.5736ZM4.19995 15.7887H2.59995V14.2189H4.19995V15.7887Z" fill="#FCFCFC"/>
<path d="M16.1999 0.875488H12.9999C12.1159 0.875488 11.3999 1.57798 11.3999 2.4453V5.58492C11.3999 6.45224 12.1159 7.15473 12.9999 7.15473H16.1999C17.0839 7.15473 17.7999 6.45224 17.7999 5.58492V2.4453C17.7999 1.57798 17.0839 0.875488 16.1999 0.875488ZM16.1999 5.58492H12.9999V2.4453H16.1999V5.58492ZM15.3999 4.80002H13.7999V3.23021H15.3999V4.80002Z" fill="#FCFCFC"/>
<path d="M9.79995 2.44528H8.19995V4.01509H9.79995V2.44528Z" fill="#FCFCFC"/>
<path d="M9.79995 5.58493H8.19995V7.15474H9.79995V5.58493Z" fill="#FCFCFC"/>
<path d="M9.79995 8.72455H8.19995V10.2944H9.79995V8.72455Z" fill="#FCFCFC"/>
<path d="M6.6 8.72455H5V10.2944H6.6V8.72455Z" fill="#FCFCFC"/>
<path d="M3.40005 8.72455H1.80005V10.2944H3.40005V8.72455Z" fill="#FCFCFC"/>
<path d="M12.9999 8.72455H11.3999V10.2944H12.9999V8.72455Z" fill="#FCFCFC"/>
<path d="M16.2001 8.72455H14.6001V10.2944H16.2001V8.72455Z" fill="#FCFCFC"/>
<path d="M11.4 10.2943H9.80005V11.8642H11.4V10.2943Z" fill="#FCFCFC"/>
<path d="M14.6 10.2943H13V11.8642H14.6V10.2943Z" fill="#FCFCFC"/>
<path d="M12.9999 11.8642H11.3999V13.434H12.9999V11.8642Z" fill="#FCFCFC"/>
<path d="M9.79995 11.8642H8.19995V13.434H9.79995V11.8642Z" fill="#FCFCFC"/>
<path d="M11.4 13.434H9.80005V15.0038H11.4V13.434Z" fill="#FCFCFC"/>
<path d="M12.9999 15.0038H11.3999V16.5736H12.9999V15.0038Z" fill="#FCFCFC"/>
<path d="M11.4 16.5736H9.80005V18.1434H11.4V16.5736Z" fill="#FCFCFC"/>
<path d="M17.7999 10.2943H16.2V11.8642H17.7999V10.2943Z" fill="#FCFCFC"/>
<path d="M17.7999 13.434H16.2V15.0038H17.7999V13.434Z" fill="#FCFCFC"/>
<path d="M14.6 13.434H13V15.0038H14.6V13.434Z" fill="#FCFCFC"/>
<path d="M14.6 16.5736H13V18.1434H14.6V16.5736Z" fill="#FCFCFC"/>
<path d="M16.2001 15.0038H14.6001V16.5736H16.2001V15.0038Z" fill="#FCFCFC"/>
<path d="M16.2001 11.8642H14.6001V13.434H16.2001V11.8642Z" fill="#FCFCFC"/>
<path d="M9.79995 15.0038H8.19995V16.5736H9.79995V15.0038Z" fill="#FCFCFC"/>
</g>
<defs>
<clipPath id="clip0">
<rect width="18" height="17.6604" fill="white" transform="translate(0 0.67926)"/>
</clipPath>
</defs>
</svg>
