<svg width="16" height="16" viewBox="0 0 16 16" fill="none" xmlns="http://www.w3.org/2000/svg">
<g clip-path="url(#clip0)">
<path d="M15.2643 12.9859L11.3908 9.18169C11.9437 8.29505 12.279 7.26192 12.279 6.1448C12.279 2.90703 9.60467 0.281006 6.30844 0.281006C3.01172 0.281006 0.337891 2.90703 0.337891 6.1448C0.337891 9.38211 3.01172 12.0086 6.30844 12.0086C7.44589 12.0086 8.49782 11.6793 9.4006 11.1382L13.2741 14.9405C13.5462 15.2077 13.9971 15.2058 14.2692 14.9405L15.2643 13.9632C15.5363 13.696 15.5363 13.2531 15.2643 12.9859ZM6.30844 10.054C4.1103 10.054 2.32807 8.30364 2.32807 6.1448C2.32807 3.98596 4.1103 2.23561 6.30844 2.23561C8.50658 2.23561 10.2888 3.98596 10.2888 6.1448C10.2888 8.30364 8.50658 10.054 6.30844 10.054Z" fill="#4A90E2"/>
</g>
<defs>
<clipPath id="clip0">
<rect width="15.1304" height="15.6368" fill="white" transform="translate(0.337891 0.281006)"/>
</clipPath>
</defs>
</svg>
